<?xml version="1.0" encoding="utf-8"?>
<!-- Generator: Adobe Illustrator 18.1.1, SVG Export Plug-In . SVG Version: 6.00 Build 0)  -->
<svg version="1.1" id="Layer_1" xmlns="http://www.w3.org/2000/svg" xmlns:xlink="http://www.w3.org/1999/xlink" x="0px" y="0px"
	 viewBox="0 50 600 300" enable-background="new 0 50 600 300" xml:space="preserve">
<g>
	<path fill="#ED8274" d="M521.2,222.1c-1-19.1-16.2-34.1-36.2-36.5c0.8-1.3,1.4-2.8,1.4-4.4c0-4.3-3.5-7.8-7.8-7.8s-7.8,3.5-7.8,7.8
		c0,1.7,0.5,3.1,1.4,4.4c-19.7,2.4-34.7,17.3-35.6,36.2c-3,1.1-5.2,4.2-5.2,7.8c0,4.1,3.5,7.3,8.2,7.3h79.4c4.4,0,7.8-3.4,7.8-7.6
		C526.7,225.9,524.5,223,521.2,222.1L521.2,222.1z M478.5,184.3c-1.7,0-3.1-1.4-3.1-3.1c0-1.7,1.4-3.1,3.1-3.1s3.1,1.4,3.1,3.1
		C481.7,183,480.3,184.3,478.5,184.3z M503.9,227.5c-1.3,0-2.4-1.1-2.4-2.4c0-10.6-4.1-19-10.8-22.4c-1.2-0.6-1.6-2-1-3.1
		c0.6-1.2,2-1.6,3.1-1c8.4,4.3,13.3,14.3,13.3,26.6C506.2,226.4,505.1,227.5,503.9,227.5z"/>
	<path fill="#B28476" d="M439.6,241.6l10.7,40.6c0.2,1.1,1.2,1.8,2.3,1.8h54.4c1.1,0,2-0.7,2.3-1.8l10.6-40.6H439.6z M462.3,265.2
		c0,1.3-1.1,2.4-2.4,2.4s-2.4-1.1-2.4-2.4v-14c0-1.3,1.1-2.4,2.4-2.4s2.4,1.1,2.4,2.4V265.2z M482.4,265.2c0,1.3-1.1,2.4-2.4,2.4
		s-2.4-1.1-2.4-2.4v-14c0-1.3,1.1-2.4,2.4-2.4s2.4,1.1,2.4,2.4V265.2z M501.5,265.2c0,1.3-1.1,2.4-2.4,2.4s-2.4-1.1-2.4-2.4v-14
		c0-1.3,1.1-2.4,2.4-2.4s2.4,1.1,2.4,2.4V265.2z"/>
	<path fill="#94685D" stroke="#94685D" stroke-miterlimit="10" d="M88.9,268.4c4.9,4.9,10.7,8.8,17,11.5c6.6,2.8,13.7,4.2,20.9,4.2
		s14.3-1.4,20.9-4.2c6.4-2.8,12.1-6.6,17-11.5c4.9-4.9,8.8-10.7,11.5-17c2.8-6.6,4.2-13.7,4.2-20.9s-1.4-14.3-4.2-20.9
		c-2.8-6.4-6.6-12.1-11.5-17c-4.9-4.9-10.7-8.8-17-11.5c-6.6-2.8-13.7-4.2-20.9-4.2s-14.3,1.4-20.9,4.2c-6.4,2.8-12.1,6.6-17,11.5
		s-8.8,10.7-11.5,17c-2.8,6.6-4.2,13.7-4.2,20.9c0,7.2,1.4,14.3,4.2,20.9C80.1,257.7,83.9,263.4,88.9,268.4z"/>
	<path fill="#FF95A2" d="M85,235.8c1.4,2.4,4,3.7,5.2,6.2c1,2.3,0.6,4.8,1,7.2c0.5,3.5,1.6,5.9,4.8,7.6c4.4,2.4,8,2.2,11.5,6.6
		c2.5,3.2,4,7.1,8.4,8c6.7,1.3,13.1-3.4,19.7-2.6c6.8,0.6,12.1,0.2,16-6.6c1.4-2.6,2.2-5.9,4.7-7.9c2.2-1.8,4.8-1.7,7.1-3.1
		c3.8-2.4,4.2-6.4,4.2-10.4c0-2-0.5-4.2-0.1-6.1c0.4-2.3,1.7-3.6,2.3-5.8c1.2-3.7,0-7.6-2-10.7c-2-3.2-5-4.4-7.6-7
		c-2.5-2.6-1.8-4.7-2.2-8c-0.4-3.5-1.8-5.9-4.9-7.7c-3.8-2.2-6.1-0.5-10-0.7c-3.4-0.1-4.9-2.3-7.4-4c-2.9-1.8-6.1-2.3-9.6-1.7
		c-3.4,0.5-5.8,2.2-8.4,4.1c-3.5,2.5-4.7,2-8.8,1.9c-3.4-0.1-6.8,0.4-9,3.1c-1.9,2.3-1.3,5.8-3.6,7.9c-2,2-5.2,1.6-7.1,4.3
		c-2,2.8-1,6-1.6,9.1C86.3,225.6,80.7,228.6,85,235.8z M158.6,241.7c-0.5,0.5-1,0.6-1.6,0.6c-0.6,0-1.2-0.2-1.7-0.7L152,238
		c-0.8-1-0.8-2.4,0.1-3.2c1-0.8,2.4-0.8,3.2,0.1l3.5,3.6C159.4,239.4,159.4,240.9,158.6,241.7z M151.3,221.3l4.8-4.8
		c0.8-0.8,2.3-0.8,3.2,0c0.8,0.8,0.8,2.3,0,3.2l-4.8,4.8c-0.5,0.5-1.1,0.7-1.6,0.7c-0.6,0-1.2-0.2-1.6-0.7
		C150.3,223.7,150.3,222.3,151.3,221.3z M106.9,248.3c-0.2,0-0.6,0-0.8-0.1l-5.9-2.3c-1.2-0.5-1.8-1.8-1.3-3c0.5-1.2,1.8-1.8,3-1.3
		l5.9,2.3c1.2,0.5,1.8,1.8,1.3,3C108.7,247.8,107.7,248.3,106.9,248.3z M126.9,213.4c9.4,0,16.9,7.6,16.9,16.9
		c0,9.4-7.6,16.9-16.9,16.9s-16.9-7.6-16.9-16.9C110,221,117.5,213.4,126.9,213.4z M116.5,255.3l-3.4,5.8c-0.5,0.7-1.2,1.1-1.9,1.1
		c-0.4,0-0.8-0.1-1.2-0.4c-1.1-0.6-1.4-2-0.8-3.1l3.4-5.8c0.6-1.1,2-1.4,3.1-0.8C116.8,252.9,117.2,254.2,116.5,255.3z M135.3,261.4
		c-0.4,0.8-1.2,1.2-2,1.2c-0.4,0-0.7-0.1-1.1-0.2l-6.5-3.4c-1.1-0.6-1.6-1.9-1-3.1c0.6-1.1,1.9-1.6,3.1-1l6.5,3.4
		C135.4,258.9,135.9,260.2,135.3,261.4z M146.3,247.4l-2.3,5.3c-0.4,0.8-1.2,1.3-2,1.3c-0.4,0-0.6-0.1-1-0.2c-1.2-0.5-1.7-1.8-1.2-3
		l1.9-4.3l0.4-0.8c0.4-0.7,1-1.2,1.7-1.3c0.4-0.1,0.8,0,1.3,0.1C146.2,245,146.8,246.3,146.3,247.4z M141.3,204.5
		c0.7-1,2.2-1.2,3.2-0.5l3.2,2.5c1,0.7,1.2,2.2,0.5,3.2c-0.5,0.6-1.1,1-1.8,1c-0.5,0-1-0.1-1.3-0.5l-3.2-2.5
		C140.7,206.9,140.5,205.5,141.3,204.5z M123.3,204.6l3.5-4.9c0.7-1.1,2.2-1.3,3.1-0.6c1.1,0.7,1.3,2.2,0.6,3.1l-3.5,4.9
		c-0.5,0.6-1.2,1-1.9,1c-0.5,0-1-0.1-1.3-0.4C122.8,207,122.6,205.6,123.3,204.6z M106.1,204c1-0.7,2.4-0.6,3.2,0.5l3.7,4.9
		c0.7,1,0.6,2.4-0.5,3.2c-0.4,0.4-0.8,0.5-1.3,0.5c-0.7,0-1.4-0.4-1.8-1l-3.7-4.9C104.8,206.2,105.1,204.8,106.1,204z M97.1,218.2
		c0-1.3,1.1-2.3,2.3-2.3c1.2,0,2.3,1.1,2.3,2.3v4.9c0,1.3-1.1,2.3-2.3,2.3c-1.3,0-2.3-1.1-2.3-2.3V218.2z M93.5,232.5l5.9-2.2
		c1.2-0.5,2.5,0.1,2.9,1.3c0.5,1.2-0.1,2.5-1.3,2.9l-5.9,2.2c-0.2,0.1-0.5,0.1-0.8,0.1c-1,0-1.8-0.6-2.2-1.4
		C91.9,234.2,92.5,232.8,93.5,232.5z"/>
	<circle fill="#D4F4E8" cx="127.1" cy="230.7" r="17.5"/>
	<g>
		<path fill="#9BCEBB" d="M366.8,231.5c-2.9-3.6-8-5.5-15.2-5.6c0.2-1.4,0.3-2.9,0.4-4.4c0.1-0.4,0.1-0.9,0.1-1.3c0-0.2,0-0.4,0-0.7
			c0-0.1,0-0.1,0-0.2c0-0.5-0.1-0.9-0.2-1.3c-2.8-12.2-28.9-17.8-53.3-17.8c-23.6,0-48.8,5.2-53,16.7c-0.5,0.7-0.8,1.6-0.8,2.5
			c0,19.1,10.1,35.9,25.1,45.4c-4,2.5-4.8,5.4-4.8,7.4c0,9.6,18,13,33.3,13s33.3-3.4,33.3-13c0-2-0.9-4.9-4.8-7.4
			c1.8-1.1,3.5-2.3,5.1-3.6c0,0,0,0,0,0c7.1,0,31.2-1.2,36.3-16.8C370.4,237.8,368.6,233.8,366.8,231.5z"/>
		<path fill="#68A691" d="M298.5,208.8c28.6,0,43.9,7.4,44.8,11c0,0.2,0,0.5,0,0.7c-0.4,1.4-3.1,3.5-8,5.4c0.1-0.2,0.1-0.3,0.1-0.5
			c0-4.1-16.5-7.4-37-7.4c-20.4,0-37,3.3-37,7.4c0,0.1,0,0.3,0.1,0.4c-5.2-2.1-7.8-4.3-7.8-5.7C253.7,216.8,268.9,208.8,298.5,208.8
			z"/>
		<path fill="#9BCEBB" d="M255.5,232.7c10.4,5,27.1,7.4,43,7.4c15.8,0,32.3-2.3,42.7-7.3c-2.5,7.8-7.1,14.7-13.1,20.1
			c-0.5,0.3-1,0.7-1.3,1.1c-7.8,6.4-17.7,10.2-28.5,10.2C278.3,264.2,261.3,250.9,255.5,232.7z"/>
		<path fill="#9BCEBB" d="M322.2,272c0.1,0,0.1,0.1,0.2,0.1c-2.7,1.8-11,4.3-24,4.3c-13,0-21.3-2.5-24-4.3c0.1,0,0.1-0.1,0.2-0.1
			c1.3-0.8,2-2.2,2.1-3.7c6.6,3,14,4.6,21.7,4.6c7.7,0,15.1-1.7,21.7-4.6C320.1,269.7,320.9,271.1,322.2,272z"/>
		<path fill="#D4F4E8" d="M360,241.5c-2.1,6.4-11,9.1-19,10.2c3.9-5.1,6.9-10.9,8.8-17.3c6-0.2,9.2,1,10.2,2.3
			C360.7,237.8,360.7,239.3,360,241.5z"/>
		<path fill="#FFFFFF" d="M275.4,192.6c0.4,0.2,0.9,0.3,1.3,0.3c1.1,0,2.1-0.6,2.6-1.6c0.7-1.4,0.1-3.2-1.3-3.9
			c-2.9-1.5-7.2-4.8-7.2-7.1c0-1.2,3.3-3.1,5.2-4.2c3.1-1.8,6.4-3.6,6.4-6.9c0-4.4-6.5-9.5-10.4-12.1c-1.3-0.9-3.1-0.6-4,0.8
			c-0.9,1.3-0.6,3.1,0.8,4c3.6,2.4,7.1,5.7,7.7,7.1c-0.6,0.6-2.2,1.5-3.4,2.1c-3.6,2.1-8.1,4.6-8.1,9.2
			C265.1,187.2,274.4,192,275.4,192.6z"/>
		<path fill="#FFFFFF" d="M300,192.6c0.4,0.2,0.9,0.3,1.3,0.3c1.1,0,2.1-0.6,2.6-1.6c0.7-1.4,0.1-3.2-1.3-3.9
			c-2.9-1.5-7.2-4.8-7.2-7.1c0-1.2,3.3-3.1,5.2-4.2c3.1-1.8,6.4-3.6,6.4-6.9c0-4.4-6.5-9.5-10.4-12.1c-1.3-0.9-3.1-0.6-4,0.8
			c-0.9,1.3-0.6,3.1,0.8,4c3.6,2.4,7.1,5.7,7.7,7.1c-0.6,0.6-2.2,1.5-3.4,2.1c-3.6,2.1-8.1,4.6-8.1,9.2
			C289.6,187.2,298.9,192,300,192.6z"/>
		<path fill="#FFFFFF" d="M323.3,192.6c0.4,0.2,0.9,0.3,1.3,0.3c1.1,0,2.1-0.6,2.6-1.6c0.7-1.4,0.1-3.2-1.3-3.9
			c-2.9-1.5-7.2-4.8-7.2-7.1c0-1.2,3.3-3.1,5.2-4.2c3.1-1.8,6.4-3.6,6.4-6.9c0-4.4-6.5-9.5-10.4-12.1c-1.3-0.9-3.1-0.6-4,0.8
			c-0.9,1.3-0.6,3.1,0.8,4c3.6,2.4,7.1,5.7,7.7,7.1c-0.6,0.6-2.2,1.5-3.4,2.1c-3.6,2.1-8.1,4.6-8.1,9.2
			C312.9,187.2,322.2,192,323.3,192.6z"/>
		<ellipse fill="#94685D" stroke="#94685D" stroke-width="0.9234" stroke-miterlimit="10" cx="298.8" cy="223.9" rx="38" ry="6.7"/>
	</g>
</g>
</svg>
